<svg version="1.1" xmlns="http://www.w3.org/2000/svg" xmlns:xlink="http://www.w3.org/1999/xlink" width="867.59802" height="802.10184" viewBox="0,0,867.59802,802.10184"><defs><radialGradient cx="240" cy="180" r="50" gradientUnits="userSpaceOnUse" id="color-1"><stop offset="0" stop-color="#ffffff"/><stop offset="1" stop-color="#ffffff" stop-opacity="0"/></radialGradient></defs><g transform="translate(232.23662,154.52734)"><g data-paper-data="{&quot;isPaintingLayer&quot;:true}" fill-rule="nonzero" stroke="none" stroke-linecap="butt" stroke-linejoin="miter" stroke-miterlimit="10" stroke-dasharray="" stroke-dashoffset="0" style="mix-blend-mode: normal"><path d="M190,180c0,-27.61424 22.38576,-50 50,-50c27.61424,0 50,22.38576 50,50c0,27.61424 -22.38576,50 -50,50c-27.61424,0 -50,-22.38576 -50,-50z" fill="url(#color-1)" stroke-width="0.5"/><path d="M-232.23662,12.42608l17.09303,-41.62725l440.22559,191.57616l-9.49613,23.12625z" fill="#ffffff" stroke-width="0"/><path d="M578.36459,545.39007l-34.9985,28.28613l-290.05259,-382.746l11.66617,-9.42871z" fill="#ffffff" stroke-width="0"/><path d="M55.02525,647.5745l-24.89045,-10.46258l191.53265,-440.17183l13.82802,5.81254z" fill="#ffffff" stroke-width="0"/><path d="M618.08034,-154.52734l17.28106,20.74524l-375.8447,298.76707l-3.2002,-3.84171z" fill="#ffffff" stroke-width="0"/><path d="M215,180c0,-13.80712 11.19288,-25 25,-25c13.80712,0 25,11.19288 25,25c0,13.80712 -11.19288,25 -25,25c-13.80712,0 -25,-11.19288 -25,-25z" fill="#ffffff" stroke-width="0.5"/></g></g></svg>