<svg version="1.1" xmlns="http://www.w3.org/2000/svg" xmlns:xlink="http://www.w3.org/1999/xlink" width="986.00366" height="594.18673" viewBox="0,0,986.00366,594.18673"><defs><radialGradient cx="240" cy="180" r="50" gradientUnits="userSpaceOnUse" id="color-1"><stop offset="0" stop-color="#ffffff"/><stop offset="1" stop-color="#ffffff" stop-opacity="0"/></radialGradient></defs><g transform="translate(247.68307,-25.34588)"><g data-paper-data="{&quot;isPaintingLayer&quot;:true}" fill-rule="nonzero" stroke="none" stroke-linecap="butt" stroke-linejoin="miter" stroke-miterlimit="10" stroke-dasharray="" stroke-dashoffset="0" style="mix-blend-mode: normal"><path d="M190,180c0,-27.61424 22.38576,-50 50,-50c27.61424,0 50,22.38576 50,50c0,27.61424 -22.38576,50 -50,50c-27.61424,0 -50,-22.38576 -50,-50z" fill="url(#color-1)" stroke-width="0.5"/><path d="M730.67695,68.90369l7.64364,44.34608l-475.57272,66.75023l-2.54787,-14.78203z" fill="#ffffff" stroke-width="0"/><path d="M505.08502,605.63431l-23.14816,13.8983l-241.93686,-414.61133l12.86009,-7.72127z" fill="#ffffff" stroke-width="0"/><path d="M-247.68307,51.19004l7.81532,-25.84416l456.26775,149.46817l-1.44728,4.78596z" fill="#ffffff" stroke-width="0"/><path d="M215,180c0,-13.80712 11.19288,-25 25,-25c13.80712,0 25,11.19288 25,25c0,13.80712 -11.19288,25 -25,25c-13.80712,0 -25,-11.19288 -25,-25z" fill="#ffffff" stroke-width="0.5"/></g></g></svg>