<svg version="1.1" xmlns="http://www.w3.org/2000/svg" xmlns:xlink="http://www.w3.org/1999/xlink" width="857.77479" height="677.49323" viewBox="0,0,857.77479,677.49323"><defs><radialGradient cx="240" cy="180" r="50" gradientUnits="userSpaceOnUse" id="color-1"><stop offset="0" stop-color="#ffffff"/><stop offset="1" stop-color="#ffffff" stop-opacity="0"/></radialGradient></defs><g transform="translate(176.66534,195.60649)"><g data-paper-data="{&quot;isPaintingLayer&quot;:true}" fill-rule="nonzero" stroke="none" stroke-linecap="butt" stroke-linejoin="miter" stroke-miterlimit="10" stroke-dasharray="" stroke-dashoffset="0" style="mix-blend-mode: normal"><path d="M190,180c0,-27.61424 22.38576,-50 50,-50c27.61424,0 50,22.38576 50,50c0,27.61424 -22.38576,50 -50,50c-27.61424,0 -50,-22.38576 -50,-50z" fill="url(#color-1)" stroke-width="0.5"/><path d="M657.52347,-102.13297l23.58598,38.32364l-416.64746,238.80933l-7.86199,-12.77455z" fill="#ffffff" stroke-width="0"/><path d="M-161.21546,481.88674l-15.44988,-22.14275l397.08209,-269.74398l8.58326,12.30153z" fill="#ffffff" stroke-width="0"/><path d="M-116.66565,-177.14581l19.70287,-18.46068l320.16278,357.79434l-3.64868,3.41865z" fill="#ffffff" stroke-width="0"/><path d="M215,180c0,-13.80712 11.19288,-25 25,-25c13.80712,0 25,11.19288 25,25c0,13.80712 -11.19288,25 -25,25c-13.80712,0 -25,-11.19288 -25,-25z" fill="#ffffff" stroke-width="0.5"/></g></g></svg>