<svg version="1.1" xmlns="http://www.w3.org/2000/svg" xmlns:xlink="http://www.w3.org/1999/xlink" width="949.68526" height="723.55065" viewBox="0,0,949.68526,723.55065"><defs><radialGradient cx="240" cy="180" r="50" gradientUnits="userSpaceOnUse" id="color-1"><stop offset="0" stop-color="#ffffff"/><stop offset="1" stop-color="#ffffff" stop-opacity="0"/></radialGradient></defs><g transform="translate(208.20055,228.53694)"><g data-paper-data="{&quot;isPaintingLayer&quot;:true}" fill-rule="nonzero" stroke="none" stroke-linecap="butt" stroke-linejoin="miter" stroke-miterlimit="10" stroke-dasharray="" stroke-dashoffset="0" style="mix-blend-mode: normal"><path d="M190,180c0,-27.61424 22.38576,-50 50,-50c27.61424,0 50,22.38576 50,50c0,27.61424 -22.38576,50 -50,50c-27.61424,0 -50,-22.38576 -50,-50z" fill="url(#color-1)" stroke-width="0.5"/><path d="M-83.85959,-200.79709l35.43304,-27.73985l288.01772,384.11689l-19.68503,15.41102z" fill="#ffffff" stroke-width="0"/><path d="M738.95547,124.06878l2.52924,44.92887l-480.08431,12.00236l-0.84308,-14.97629z" fill="#ffffff" stroke-width="0"/><path d="M-195.56257,430.6327l-12.63798,-23.85962l426.97944,-219.3731l7.0211,13.25534z" fill="#ffffff" stroke-width="0"/><path d="M650.74818,473.41043l-16.19563,21.60328l-377.46006,-296.72361l2.99919,-4.00061z" fill="#ffffff" stroke-width="0"/><path d="M215,180c0,-13.80712 11.19288,-25 25,-25c13.80712,0 25,11.19288 25,25c0,13.80712 -11.19288,25 -25,25c-13.80712,0 -25,-11.19288 -25,-25z" fill="#ffffff" stroke-width="0.5"/></g></g></svg>