<svg version="1.1" xmlns="http://www.w3.org/2000/svg" xmlns:xlink="http://www.w3.org/1999/xlink" width="23.97058" height="23.97058" viewBox="0,0,23.97058,23.97058"><g transform="translate(-227.96601,-168.01472)"><g data-paper-data="{&quot;isPaintingLayer&quot;:true}" fill-rule="nonzero" stroke="#000000" stroke-width="0.5" stroke-linecap="butt" stroke-linejoin="miter" stroke-miterlimit="10" stroke-dasharray="" stroke-dashoffset="0" style="mix-blend-mode: normal"><path d="M228.21602,180.00001c0,-6.48122 5.25407,-11.73529 11.73529,-11.73529c6.48122,0 11.73529,5.25407 11.73529,11.73529c0,6.48122 -5.25407,11.73529 -11.73529,11.73529c-6.48122,0 -11.73529,-5.25407 -11.73529,-11.73529z" fill="#80ffff"/><path d="M232.50507,185.56556v-11.13111l14.98987,5.56555z" fill="#9966ff"/><path d="M236.48818,182.63754v-5.27506l6.92626,2.63754z" fill="#80ffff"/><path d="M228.21601,180.00001c0,-6.48122 5.25407,-11.73529 11.73529,-11.73529c6.48122,0 11.73529,5.25407 11.73529,11.73529c0,6.48122 -5.25407,11.73529 -11.73529,11.73529c-6.48122,0 -11.73529,-5.25407 -11.73529,-11.73529z" fill-opacity="0.20161" fill="#80ffff"/></g></g></svg>